<?xml version="1.0" encoding="UTF-8" standalone="no"?>
<svg
   viewBox="0 0 886 886"
   width="886"
   height="886"
   role="img"
   aria-label="Rounded square metallic gradient background in copper, silver, and gold"
   version="1.1"
   id="svg17"
   xml:space="preserve"
   xmlns:xlink="http://www.w3.org/1999/xlink"
   xmlns="http://www.w3.org/2000/svg"
   xmlns:svg="http://www.w3.org/2000/svg"><defs
     id="defs13"><linearGradient
       id="edgeGrad"
       x1="83"
       y1="83"
       x2="83"
       y2="941"
       gradientUnits="userSpaceOnUse"
       gradientTransform="translate(-69,-69)"><stop
         offset="0%"
         stop-color="#fff7df"
         stop-opacity="0.95"
         id="stop6" /><stop
         offset="18%"
         stop-color="#f0c97c"
         stop-opacity="0.55"
         id="stop7" /><stop
         offset="55%"
         stop-color="#ffffff"
         stop-opacity="0.12"
         id="stop8" /><stop
         offset="100%"
         stop-color="#000000"
         stop-opacity="0.28"
         id="stop9" /></linearGradient><filter
       id="softShadow"
       x="0"
       y="0"
       width="1"
       height="1"><feDropShadow
         dx="0"
         dy="18"
         stdDeviation="24"
         flood-color="#000000"
         flood-opacity="0.28" /></filter><linearGradient
       id="starGrad"
       x1="96"
       y1="96"
       x2="928"
       y2="928"
       gradientUnits="userSpaceOnUse"><stop
         offset="0%"
         stop-color="#f7e7a1"
         id="stop1-5" /><stop
         offset="28%"
         stop-color="#d7a53a"
         id="stop2-5" /><stop
         offset="55%"
         stop-color="#f4f6f8"
         id="stop3-9" /><stop
         offset="78%"
         stop-color="#c87a3a"
         id="stop4-1" /><stop
         offset="100%"
         stop-color="#fff4bf"
         id="stop5-8" /></linearGradient><radialGradient
       id="glowGrad-5"
       cx="512"
       cy="512"
       r="387.20001"
       fx="512"
       fy="512"
       gradientUnits="userSpaceOnUse"><stop
         offset="0%"
         stop-color="#ffffff"
         stop-opacity="0.45"
         id="stop6-9" /><stop
         offset="45%"
         stop-color="#ffffff"
         stop-opacity="0.10"
         id="stop7-1" /><stop
         offset="100%"
         stop-color="#ffffff"
         stop-opacity="0"
         id="stop8-5" /></radialGradient><linearGradient
       xlink:href="#starGrad"
       id="linearGradient39"
       gradientUnits="userSpaceOnUse"
       x1="96"
       y1="96"
       x2="928"
       y2="928" /><radialGradient
       xlink:href="#glowGrad-5"
       id="radialGradient39"
       gradientUnits="userSpaceOnUse"
       cx="512"
       cy="512"
       fx="512"
       fy="512"
       r="387.20001" /><linearGradient
       xlink:href="#starGrad"
       id="linearGradient40"
       gradientUnits="userSpaceOnUse"
       x1="96"
       y1="96"
       x2="928"
       y2="928" /><radialGradient
       xlink:href="#glowGrad-5"
       id="radialGradient40"
       gradientUnits="userSpaceOnUse"
       cx="512"
       cy="512"
       fx="512"
       fy="512"
       r="387.20001" /><linearGradient
       xlink:href="#starGrad"
       id="linearGradient41"
       gradientUnits="userSpaceOnUse"
       x1="96"
       y1="96"
       x2="928"
       y2="928" /><radialGradient
       xlink:href="#glowGrad-5"
       id="radialGradient41"
       gradientUnits="userSpaceOnUse"
       cx="512"
       cy="512"
       fx="512"
       fy="512"
       r="387.20001" /><linearGradient
       xlink:href="#starGrad"
       id="linearGradient43"
       gradientUnits="userSpaceOnUse"
       x1="96"
       y1="96"
       x2="928"
       y2="928" /><radialGradient
       xlink:href="#glowGrad-5"
       id="radialGradient43"
       gradientUnits="userSpaceOnUse"
       cx="512"
       cy="512"
       fx="512"
       fy="512"
       r="387.20001" /><linearGradient
       xlink:href="#starGrad"
       id="linearGradient45"
       gradientUnits="userSpaceOnUse"
       x1="96"
       y1="96"
       x2="928"
       y2="928" /><radialGradient
       xlink:href="#glowGrad-5"
       id="radialGradient45"
       gradientUnits="userSpaceOnUse"
       cx="512"
       cy="512"
       fx="512"
       fy="512"
       r="387.20001" /></defs><rect
     x="3"
     y="3"
     width="880"
     height="880"
     rx="210"
     fill="url(#baseGrad)"
     filter="url(#softShadow)"
     id="rect13"
     style="opacity:0;fill:#f4eed7" /><rect
     x="3"
     y="3"
     width="880"
     height="880"
     rx="210"
     fill="url(#glowGrad)"
     id="rect14"
     style="opacity:0;fill:#24221c" /><rect
     x="23"
     y="23"
     width="840"
     height="840"
     rx="190"
     fill="none"
     stroke="url(#edgeGrad)"
     stroke-width="18"
     id="rect15"
     style="opacity:1;stroke:url(#edgeGrad)" /><rect
     x="53"
     y="53"
     width="780"
     height="780"
     rx="165"
     fill="none"
     stroke="rgba(255,255,255,0.16)"
     stroke-width="4"
     opacity="0.55"
     id="rect16"
     style="opacity:0;mix-blend-mode:normal;fill:#666666;fill-opacity:1" /><path
     d="M 71,181 Q 443,51 815,181"
     fill="none"
     stroke="#ffffff"
     stroke-opacity="0.18"
     stroke-width="18"
     stroke-linecap="round"
     id="path16"
     style="opacity:0" /><path
     d="m 91,721 q 352,110 704,0"
     fill="none"
     stroke="#000000"
     stroke-opacity="0.16"
     stroke-width="22"
     stroke-linecap="round"
     id="path17"
     style="opacity:0" /><rect
     x="3"
     y="3"
     width="880"
     height="880"
     rx="210"
     fill="none"
     stroke="#000000"
     stroke-opacity="0.16"
     stroke-width="6"
     id="rect17"
     style="opacity:0.327;fill:#333333" /><circle
     style="opacity:1;fill:#a0892c;fill-opacity:1;stroke-width:1.20645"
     id="path18"
     cx="247.69617"
     cy="247.87051"
     r="195" /><circle
     style="opacity:1;fill:#a05a2c;fill-opacity:1;stroke-width:1.20645"
     id="circle19"
     cx="637.16071"
     cy="248.42096"
     r="195" /><circle
     style="opacity:1;fill:#483e37;fill-opacity:1;stroke-width:1.20645"
     id="circle20"
     cx="247.14575"
     cy="637.36243"
     r="195" /><circle
     style="opacity:1;fill:#999999;fill-opacity:1;stroke-width:1.20646"
     id="circle21"
     cx="636.08722"
     cy="637.91284"
     r="195" /><text
     xml:space="preserve"
     style="font-style:normal;font-variant:normal;font-weight:normal;font-stretch:normal;font-size:466.667px;font-family:'Nimbus Sans';-inkscape-font-specification:'Nimbus Sans';writing-mode:lr-tb;direction:ltr;fill:#a05a2c;fill-opacity:1;stroke-width:2.42325"
     x="48.039742"
     y="859.45032"
     id="text25"
     transform="scale(1.0844868,0.92209514)"><tspan
       id="tspan25"
       x="48.039742"
       y="859.45032"
       style="font-size:466.667px;fill:#a05a2c;stroke-width:2.42325">G</tspan></text><g
     id="g45"
     transform="matrix(0.13865739,0,0,0.2474949,370.33888,652.4706)"
     style="opacity:0.7"><path
       d="M 512,96 C 548,360 664,476 928,512 664,548 548,664 512,928 476,664 360,548 96,512 360,476 476,360 512,96 Z"
       fill="url(#starGrad)"
       id="path44"
       style="fill:url(#linearGradient45)" /><path
       d="M 512,160 C 540,378 646,484 864,512 646,540 540,646 512,864 484,646 378,540 160,512 378,484 484,378 512,160 Z"
       fill="url(#glowGrad)"
       id="path45"
       style="fill:url(#radialGradient45)" /></g><text
     xml:space="preserve"
     style="font-style:normal;font-variant:normal;font-weight:normal;font-stretch:normal;font-size:466.667px;font-family:'Nimbus Sans';-inkscape-font-specification:'Nimbus Sans';writing-mode:lr-tb;direction:ltr;fill:#a0892c;fill-opacity:1;stroke-width:2.41004"
     x="464.09927"
     y="796.69598"
     id="text26"
     transform="scale(0.98646375,1.013722)"><tspan
       id="tspan26"
       x="464.09927"
       y="796.69598"
       style="font-size:466.667px;fill:#a0892c;stroke-width:2.41004">O</tspan></text><text
     xml:space="preserve"
     style="font-style:normal;font-variant:normal;font-weight:normal;font-stretch:normal;font-size:42.6667px;font-family:'Nimbus Sans';-inkscape-font-specification:'Nimbus Sans';writing-mode:lr-tb;direction:ltr;fill:#483e37;fill-opacity:1"
     x="258.73099"
     y="659.32385"
     id="text29"><tspan
       id="tspan29"
       x="258.73099"
       y="659.32385">OING</tspan></text><text
     xml:space="preserve"
     style="font-style:normal;font-variant:normal;font-weight:normal;font-stretch:normal;font-size:39.5942px;font-family:'Nimbus Sans';-inkscape-font-specification:'Nimbus Sans';writing-mode:lr-tb;direction:ltr;fill:#999999;fill-opacity:1;stroke-width:0.927987"
     x="543.83221"
     y="520.21051"
     id="text30"
     transform="scale(1.0497154,0.95263917)"><tspan
       id="tspan30"
       x="543.83221"
       y="520.21051"
       style="stroke-width:0.927987">RBITAL</tspan></text><text
     xml:space="preserve"
     style="font-style:normal;font-variant:normal;font-weight:normal;font-stretch:normal;font-size:58.003px;font-family:'Nimbus Sans';-inkscape-font-specification:'Nimbus Sans';writing-mode:lr-tb;direction:ltr;fill:#a05a2c;fill-opacity:0.878431;stroke-width:0.679722"
     x="181.86494"
     y="844.28418"
     id="text35"
     transform="scale(0.96007758,1.0415825)"><tspan
       id="tspan35"
       x="181.86494"
       y="844.28418"
       style="fill:#a05a2c;stroke-width:0.679722">MARKET.COSIGO.IO</tspan></text><text
     xml:space="preserve"
     style="font-style:normal;font-variant:normal;font-weight:normal;font-stretch:normal;font-size:466.667px;font-family:'Nimbus Sans';-inkscape-font-specification:'Nimbus Sans';writing-mode:lr-tb;direction:ltr;fill:#999999;fill-opacity:1;stroke-width:2.48623"
     x="59.697262"
     y="431.79028"
     id="text37"
     transform="scale(1.0569011,0.94616233)"><tspan
       id="tspan37"
       x="59.697262"
       y="431.79028"
       style="font-size:466.667px;fill:#999999;stroke-width:2.48623">C</tspan></text><text
     xml:space="preserve"
     style="font-style:normal;font-variant:normal;font-weight:normal;font-stretch:normal;font-size:40.3653px;font-family:'Nimbus Sans';-inkscape-font-specification:'Nimbus Sans';writing-mode:lr-tb;direction:ltr;fill:#a0892c;fill-opacity:1;stroke-width:0.927217"
     x="187.37878"
     y="403.73532"
     id="text27"
     transform="scale(0.98037254,1.0200204)"><tspan
       id="tspan27"
       x="187.37878"
       y="403.73532"
       style="font-size:40.3653px;stroke-width:0.927217">RYPTO</tspan></text><text
     xml:space="preserve"
     style="font-style:normal;font-variant:normal;font-weight:normal;font-stretch:normal;font-size:466.667px;font-family:'Nimbus Sans';-inkscape-font-specification:'Nimbus Sans';writing-mode:lr-tb;direction:ltr;fill:#483e37;fill-opacity:1"
     x="572.62811"
     y="416.1228"
     id="text38"><tspan
       id="tspan38"
       x="572.62811"
       y="416.1228">I</tspan></text><text
     xml:space="preserve"
     style="font-style:normal;font-variant:normal;font-weight:normal;font-stretch:normal;font-size:42.6667px;font-family:'Nimbus Sans';-inkscape-font-specification:'Nimbus Sans';writing-mode:lr-tb;direction:ltr;fill:#a05a2c;fill-opacity:1"
     x="115.77982"
     y="-626.18622"
     id="text28"
     transform="rotate(90.097965)"><tspan
       id="tspan28"
       x="115.77982"
       y="-626.18622">NVESTMENT</tspan></text><g
     id="g38"
     transform="matrix(0.13865739,0,0,0.2474949,370.53545,-20.40554)"
     style="opacity:0.7"><path
       d="M 512,96 C 548,360 664,476 928,512 664,548 548,664 512,928 476,664 360,548 96,512 360,476 476,360 512,96 Z"
       fill="url(#starGrad)"
       id="path8"
       style="fill:url(#linearGradient40)" /><path
       d="M 512,160 C 540,378 646,484 864,512 646,540 540,646 512,864 484,646 378,540 160,512 378,484 484,378 512,160 Z"
       fill="url(#glowGrad)"
       id="path9"
       style="fill:url(#radialGradient40)" /></g><g
     id="g39"
     transform="matrix(0.1818776,0,0,0.23908753,713.85868,320.66022)"
     style="opacity:0.7"><path
       d="M 512,96 C 548,360 664,476 928,512 664,548 548,664 512,928 476,664 360,548 96,512 360,476 476,360 512,96 Z"
       fill="url(#starGrad)"
       id="path38"
       style="fill:url(#linearGradient39)" /><path
       d="M 512,160 C 540,378 646,484 864,512 646,540 540,646 512,864 484,646 378,540 160,512 378,484 484,378 512,160 Z"
       fill="url(#glowGrad)"
       id="path39"
       style="fill:url(#radialGradient39)" /></g><g
     id="g41"
     transform="matrix(0.1798415,0,0,0.23908753,-14.335204,319.67737)"
     style="opacity:0.7"><path
       d="M 512,96 C 548,360 664,476 928,512 664,548 548,664 512,928 476,664 360,548 96,512 360,476 476,360 512,96 Z"
       fill="url(#starGrad)"
       id="path40"
       style="fill:url(#linearGradient41)" /><path
       d="M 512,160 C 540,378 646,484 864,512 646,540 540,646 512,864 484,646 378,540 160,512 378,484 484,378 512,160 Z"
       fill="url(#glowGrad)"
       id="path41"
       style="fill:url(#radialGradient41)" /></g><g
     id="g43"
     transform="matrix(0.26108468,0,0,0.33017122,307.10869,272.93314)"
     style="opacity:0.768"><path
       d="M 512,96 C 548,360 664,476 928,512 664,548 548,664 512,928 476,664 360,548 96,512 360,476 476,360 512,96 Z"
       fill="url(#starGrad)"
       id="path42"
       style="fill:url(#linearGradient43)" /><path
       d="M 512,160 C 540,378 646,484 864,512 646,540 540,646 512,864 484,646 378,540 160,512 378,484 484,378 512,160 Z"
       fill="url(#glowGrad)"
       id="path43"
       style="fill:url(#radialGradient43)" /></g></svg>
